<?xml version="1.0" standalone="no"?>
<!DOCTYPE svg PUBLIC "-//W3C//DTD SVG 20010904//EN"
 "http://www.w3.org/TR/2001/REC-SVG-20010904/DTD/svg10.dtd">
<svg version="1.0" xmlns="http://www.w3.org/2000/svg"
 width="700.000000pt" height="700.000000pt" viewBox="0 0 700.000000 700.000000"
 preserveAspectRatio="xMidYMid meet">
<metadata>
Created by potrace 1.14, written by Peter Selinger 2001-2017
</metadata>
<g transform="translate(0.000000,700.000000) scale(0.100000,-0.100000)"
fill="#000000" stroke="none">
<path d="M1098 5828 c-238 -27 -448 -216 -501 -453 -11 -49 -13 -388 -12
-1895 2 -1728 3 -1838 19 -1890 33 -100 78 -172 156 -250 82 -82 177 -137 280
-161 44 -10 541 -12 2450 -12 1317 0 2414 3 2437 6 223 33 425 226 476 452 11
49 13 393 12 1895 l-1 1835 -22 65 c-66 199 -241 360 -437 401 -47 9 -587 12
-2425 13 -1301 1 -2395 -2 -2432 -6z m4737 -2608 c0 -795 -1 -1451 -3 -1457
-3 -10 -479 -13 -2333 -13 -1281 0 -2329 3 -2330 8 -2 23 -4 2889 -1 2898 2 7
702 10 2334 10 l2332 -1 1 -1445z"/>
<path d="M1977 4169 l-206 -202 380 -380 c208 -209 378 -381 377 -383 -2 -1
-171 -172 -376 -378 l-374 -375 204 -205 203 -204 585 583 584 584 -579 580
c-319 319 -583 581 -586 581 -3 0 -98 -91 -212 -201z"/>
<path d="M3500 2334 l0 -292 875 0 875 1 0 288 c0 159 -3 290 -7 290 -5 1
-398 2 -875 3 l-868 1 0 -291z"/>
</g>
</svg>
