<?xml version="1.0" standalone="no"?>
<!DOCTYPE svg PUBLIC "-//W3C//DTD SVG 20010904//EN"
 "http://www.w3.org/TR/2001/REC-SVG-20010904/DTD/svg10.dtd">
<svg version="1.0" xmlns="http://www.w3.org/2000/svg"
 width="512.000000pt" height="512.000000pt" viewBox="0 0 512.000000 512.000000"
 preserveAspectRatio="xMidYMid meet">
<metadata>
Created by potrace 1.14, written by Peter Selinger 2001-2017
</metadata>
<g transform="translate(0.000000,512.000000) scale(0.100000,-0.100000)"
fill="#000000" stroke="none">
<path d="M0 2560 l0 -2560 2560 0 2560 0 0 2560 0 2560 -2560 0 -2560 0 0
-2560z m2805 1040 c101 -27 249 -96 329 -154 71 -51 198 -180 245 -249 50 -74
117 -222 143 -317 20 -73 23 -109 23 -250 0 -193 -17 -273 -90 -429 -57 -119
-113 -197 -211 -292 -97 -92 -149 -128 -267 -184 -154 -73 -234 -90 -427 -90
-193 0 -273 17 -427 90 -118 56 -170 92 -267 184 -98 95 -154 173 -211 292
-73 156 -90 236 -90 429 0 141 3 177 23 250 29 105 97 252 156 334 50 70 180
198 246 243 104 70 250 132 380 159 100 21 343 12 445 -16z"/>
</g>
</svg>
